<?xml version="1.0" encoding="UTF-8"?>
<svg version="1.1" xmlns="http://www.w3.org/2000/svg" width="512" height="512">
<path d="M0 0 C0.85095749 -0.00807175 1.70191498 -0.01614349 2.57865906 -0.02445984 C4.38176434 -0.03830169 6.18489584 -0.0490234 7.98803711 -0.05688477 C10.74057942 -0.07408664 13.49191713 -0.11796924 16.24414062 -0.16210938 C17.99608492 -0.17223738 19.74803942 -0.18075315 21.5 -0.1875 C22.32099686 -0.20500809 23.14199371 -0.22251617 23.98786926 -0.24055481 C27.90455315 -0.22575006 29.96349107 -0.05580647 33.38354492 2.01489258 C37.61101561 6.56513198 37.72910324 10.20795977 37.64453125 16.28515625 C37.64251709 16.96916504 37.64050293 17.65317383 37.63842773 18.35791016 C37.62800114 20.90143587 37.60007856 23.44486563 37.57421875 25.98828125 C37.53296875 31.68078125 37.49171875 37.37328125 37.44921875 43.23828125 C49.98921875 43.23828125 62.52921875 43.23828125 75.44921875 43.23828125 C75.33071132 31.61563282 75.33071132 31.61563282 75.17895508 19.9934082 C75.17018801 18.52946632 75.16254459 17.0655171 75.15625 15.6015625 C75.13322815 14.47397522 75.13322815 14.47397522 75.10974121 13.3236084 C75.10747864 8.76604053 75.59053804 5.83870535 78.44921875 2.23828125 C82.36996327 -0.37554843 85.76182968 -0.10386565 90.31640625 -0.1328125 C91.18814484 -0.14184097 92.05988342 -0.15086945 92.95803833 -0.16017151 C94.80223149 -0.17467737 96.64647615 -0.18356158 98.49072266 -0.18725586 C101.30720108 -0.1991469 104.12148441 -0.24832216 106.9375 -0.29882812 C108.73045807 -0.30829321 110.52342958 -0.31552784 112.31640625 -0.3203125 C113.57600662 -0.34961098 113.57600662 -0.34961098 114.86105347 -0.37950134 C119.05718347 -0.34725055 120.9214989 -0.14865208 124.39501953 2.39819336 C128.26598758 7.75010343 128.6965769 12.31851244 128.64453125 18.82421875 C128.63953613 20.1086084 128.63454102 21.39299805 128.62939453 22.71630859 C128.61118652 24.33230957 128.59297852 25.94831055 128.57421875 27.61328125 C128.53296875 32.76953125 128.49171875 37.92578125 128.44921875 43.23828125 C140.65921875 43.23828125 152.86921875 43.23828125 165.44921875 43.23828125 C165.33081555 32.31886468 165.33081555 32.31886468 165.17895508 21.39990234 C165.17018477 20.02051493 165.16254212 18.64111969 165.15625 17.26171875 C165.13322815 16.20658081 165.13322815 16.20658081 165.10974121 15.13012695 C165.10677696 9.4921129 166.33190731 5.61671728 170.09228516 1.39257812 C173.67512248 -0.3620992 177.25235907 -0.22950134 181.16015625 -0.23046875 C182.00591217 -0.23808228 182.85166809 -0.2456958 183.72305298 -0.25354004 C185.51000013 -0.26433121 187.29701031 -0.26719813 189.08398438 -0.26269531 C191.80837114 -0.2617244 194.52992705 -0.30332386 197.25390625 -0.34765625 C198.99348374 -0.35286475 200.73307097 -0.35555142 202.47265625 -0.35546875 C203.68699844 -0.38006165 203.68699844 -0.38006165 204.9258728 -0.40515137 C209.06986349 -0.3549047 211.66956359 -0.00157926 214.94775391 2.65039062 C218.9324441 6.77275214 218.58343761 9.82650509 218.546875 15.30859375 C218.54586792 16.0142749 218.54486084 16.71995605 218.54382324 17.44702148 C218.53858703 20.08579124 218.52462577 22.72453786 218.51171875 25.36328125 C218.49109375 31.26203125 218.47046875 37.16078125 218.44921875 43.23828125 C230.98921875 43.23828125 243.52921875 43.23828125 256.44921875 43.23828125 C256.33072213 31.94472805 256.33072213 31.94472805 256.17895508 20.65161133 C256.17018767 19.22868527 256.16254433 17.80575165 256.15625 16.3828125 C256.13322815 15.28761292 256.13322815 15.28761292 256.10974121 14.17028809 C256.1068629 8.5335991 257.33221588 5.54175425 261.09008789 1.45288086 C264.67211593 -0.39132793 268.25692218 -0.20946828 272.1953125 -0.1953125 C273.46750389 -0.20317528 273.46750389 -0.20317528 274.76539612 -0.2111969 C276.5565583 -0.2176113 278.34776263 -0.21628761 280.13891602 -0.20776367 C282.87397598 -0.19925838 285.60694343 -0.22801366 288.34179688 -0.25976562 C290.08463479 -0.26137795 291.8274764 -0.26079952 293.5703125 -0.2578125 C294.38503525 -0.26904648 295.199758 -0.28028046 296.03916931 -0.29185486 C300.03676769 -0.24299459 301.97979515 -0.06431666 305.42382812 2.15576172 C310.30834775 7.17805588 309.92456837 12.14465779 309.83984375 18.9296875 C309.47012629 22.06119438 309.27734529 23.388835 307.13671875 25.61328125 C304.44921875 27.23828125 304.44921875 27.23828125 301.44921875 27.23828125 C301.44921875 32.51828125 301.44921875 37.79828125 301.44921875 43.23828125 C303.06570313 43.18027344 304.6821875 43.12226562 306.34765625 43.0625 C308.50648132 43.01556902 310.66533791 42.97007247 312.82421875 42.92578125 C313.88511719 42.88388672 314.94601562 42.84199219 316.0390625 42.79882812 C324.34169313 42.67148716 331.1091129 44.25422134 337.36279297 49.99487305 C344.11023413 57.16065123 344.90370187 64.38663017 344.9609375 73.859375 C344.9878643 75.50922142 344.9878643 75.50922142 345.01533508 77.19239807 C345.06928364 80.68682077 345.10328496 84.18110806 345.13671875 87.67578125 C345.16990538 90.05275315 345.20439627 92.42970722 345.24023438 94.80664062 C345.32500127 100.61706605 345.39341641 106.42750933 345.44921875 112.23828125 C345.75625732 111.68366211 346.0632959 111.12904297 346.37963867 110.55761719 C347.78788486 108.0283277 349.21208122 105.50837178 350.63671875 102.98828125 C351.11947266 102.11558594 351.60222656 101.24289063 352.09960938 100.34375 C355.31900196 94.68280465 358.00387196 90.38673018 364.44921875 88.23828125 C371.23788317 87.41121453 375.86418269 88.80206208 381.63671875 92.30078125 C382.33289307 92.71054199 383.02906738 93.12030273 383.74633789 93.54248047 C389.82720633 97.2412495 394.28243847 100.53203801 396.51171875 107.61328125 C396.35487415 116.71026802 391.46464883 124.06498341 386.82421875 131.61328125 C385.64211596 133.557127 384.4623169 135.50237614 383.28515625 137.44921875 C382.7648584 138.29790527 382.24456055 139.1465918 381.70849609 140.02099609 C380.32333091 142.29339434 380.32333091 142.29339434 379.44921875 145.23828125 C380.04734375 145.44453125 380.64546875 145.65078125 381.26171875 145.86328125 C384.45981289 147.87351185 385.21914932 149.67755395 386.44921875 153.23828125 C387.43141321 160.95326032 383.02452114 167.02526476 379.1640625 173.296875 C377.28133308 175.95878501 377.28133308 175.95878501 377.44921875 178.23828125 C378.82871007 179.19036607 380.25479163 180.07543303 381.69921875 180.92578125 C387.01740343 184.39598037 389.53820367 187.40309889 391.0078125 193.58984375 C392.38211384 202.7424073 388.9459911 210.02254456 384.19921875 217.67578125 C383.30064771 219.164499 382.40361378 220.65414521 381.5078125 222.14453125 C381.01909668 222.9540625 380.53038086 223.76359375 380.02685547 224.59765625 C377.0449748 229.588684 374.15974571 234.63576701 371.26171875 239.67578125 C369.98184694 241.89717927 368.7018978 244.11853273 367.421875 246.33984375 C366.43498995 248.05358448 365.44810511 249.76732534 364.46124268 251.4810791 C361.70550813 256.26592908 358.94787254 261.04968296 356.18954468 265.83303833 C355.22077884 267.51338478 354.25259469 269.19406654 353.28442383 270.87475586 C352.6942749 271.89835205 352.10412598 272.92194824 351.49609375 273.9765625 C350.97885742 274.87415283 350.46162109 275.77174316 349.92871094 276.6965332 C348.44921875 279.23828125 348.44921875 279.23828125 346.87998867 281.37456131 C345.00326697 285.13086432 345.03759145 288.49584111 345.07740784 292.59954834 C345.07358327 293.43868216 345.06975871 294.27781598 345.06581825 295.14237809 C345.0565362 297.95283559 345.06852292 300.76280008 345.08032227 303.57324219 C345.07785422 305.58890996 345.07401577 307.60457645 345.06890869 309.62023926 C345.06056866 313.96093772 345.06138014 318.301505 345.0690937 322.64220428 C345.08067339 329.50894747 345.06851619 336.37552182 345.05247498 343.24224854 C345.01627286 360.30081156 345.01004932 377.35937081 345.01257324 394.41796875 C345.01428493 407.67005385 345.0071444 420.92200115 344.97259468 434.17404771 C344.95581137 440.99661443 344.9575868 447.81884503 344.9734174 454.64141035 C344.97922214 458.89202985 344.96845984 463.14249067 344.95317078 467.39308167 C344.94945038 469.3598498 344.95253571 471.32664477 344.96304131 473.29338837 C344.97646068 475.98568464 344.96516143 478.67682874 344.94801331 481.36907959 C344.96272347 482.52694336 344.96272347 482.52694336 344.97773081 483.70819831 C344.86475689 492.32960013 341.16188675 499.26358441 335.38671875 505.51171875 C330.58903896 509.7870705 324.54815981 512.35928971 318.12164307 512.36970901 C317.23273754 512.37355016 316.34383202 512.3773913 315.42798996 512.38134885 C313.96171598 512.38004912 313.96171598 512.38004912 312.46582031 512.37872314 C311.42815144 512.38169427 310.39048256 512.38466539 309.32136917 512.38772655 C305.8275193 512.39643172 302.33370362 512.39792331 298.83984375 512.39941406 C296.34183682 512.40404084 293.84383059 512.40906531 291.3458252 512.41445923 C284.54849622 512.42759621 277.75118068 512.43406683 270.95384216 512.43846989 C266.71161778 512.44123153 262.46939569 512.44546866 258.22717285 512.44997406 C246.48671614 512.46216516 234.74626125 512.47246579 223.00579834 512.47584915 C222.25438513 512.47606872 221.50297192 512.47628828 220.72878861 512.4765145 C219.59894945 512.47684192 219.59894945 512.47684192 218.44628525 512.47717595 C216.91991933 512.47761942 215.39355342 512.47806598 213.8671875 512.47851562 C212.73148843 512.47884777 212.73148843 512.47884777 211.57284594 512.47918662 C199.29510224 512.48313758 187.01741778 512.50060134 174.73969698 512.52387515 C162.14107689 512.54756504 149.54248657 512.56004987 136.94384384 512.56121707 C129.86735558 512.562135 122.79094457 512.56791713 115.71447754 512.58603668 C109.06282887 512.60300835 102.41130134 512.60470808 95.7596283 512.59589767 C93.31301989 512.5951235 90.86640381 512.59951965 88.41981506 512.60935593 C85.09057083 512.62196018 81.76185675 512.61626162 78.43261719 512.60577393 C77.4551012 512.61383033 76.47758522 512.62188673 75.47044754 512.63018727 C74.58154202 512.62359743 73.69263649 512.61700758 72.77679443 512.61021805 C72.0079681 512.61081514 71.23914177 512.61141222 70.44701767 512.61202741 C67.8598698 512.12802646 66.96773541 511.37089457 65.44921875 509.23828125 C65.44921875 507.91828125 65.44921875 506.59828125 65.44921875 505.23828125 C58.84921875 505.23828125 52.24921875 505.23828125 45.44921875 505.23828125 C45.11921875 506.88828125 44.78921875 508.53828125 44.44921875 510.23828125 C41.62455955 513.06294045 39.78894864 512.49814853 35.83154297 512.51293945 C35.15159775 512.51805038 34.47165253 512.52316132 33.77110291 512.52842712 C31.51528189 512.54236478 29.25976531 512.54136212 27.00390625 512.5390625 C25.43409105 512.54294954 23.8642769 512.54728423 22.29446411 512.55204773 C18.9973816 512.55952063 15.70040611 512.55921272 12.40332031 512.55395508 C8.19350697 512.54818447 3.98413704 512.56502735 -0.2256031 512.58829975 C-3.47200045 512.60309588 -6.71829277 512.6039004 -9.96471786 512.60079002 C-11.51554105 512.60130113 -13.06637044 512.60649913 -14.6171608 512.61660194 C-26.42188509 512.68401498 -34.5956416 511.91687965 -43.5 503.55078125 C-50.44970758 495.7141586 -51.67200098 487.15980773 -51.68220901 476.96049213 C-51.68426165 476.25871205 -51.68631428 475.55693197 -51.68842912 474.83388582 C-51.69407146 472.48862998 -51.69264531 470.14343339 -51.69122314 467.798172 C-51.69380836 466.09713969 -51.69682196 464.39610799 -51.70022655 462.69507712 C-51.70828128 458.0252069 -51.71008526 453.35535206 -51.71082401 448.68547571 C-51.7126772 443.64714483 -51.72022584 438.60882188 -51.72695923 433.57049561 C-51.7405318 422.55599395 -51.74656547 411.54149594 -51.75096989 400.52698731 C-51.75373389 393.64806876 -51.75797151 386.7691516 -51.76247406 379.89023399 C-51.77466486 360.84001281 -51.78496485 341.78979275 -51.78834915 322.73956776 C-51.78856872 321.5207089 -51.78878828 320.30185005 -51.7890145 319.04605607 C-51.78923278 317.82430477 -51.78945106 316.60255346 -51.78967595 315.34377939 C-51.79011942 312.86810227 -51.79056598 310.39242516 -51.79101562 307.91674805 C-51.79123705 306.68873038 -51.79145848 305.46071272 -51.79168662 304.1954824 C-51.79563473 284.29681559 -51.81308999 264.3981854 -51.83637515 244.49953274 C-51.86009521 224.06410747 -51.87255129 203.62870058 -51.87371707 183.19326133 C-51.87463341 171.721821 -51.88037556 160.2504284 -51.89853668 148.77900124 C-51.91394642 139.01117715 -51.91905292 129.24341555 -51.91079858 119.47558162 C-51.90689532 114.49386875 -51.90780595 109.51228168 -51.92185593 104.53058434 C-51.9346139 99.96516894 -51.93338067 95.39997363 -51.92126521 90.83455845 C-51.91931152 89.18786041 -51.92237143 87.54114668 -51.93110958 85.89447067 C-52.04895538 62.17453395 -52.04895538 62.17453395 -44.35546875 52.98828125 C-37.59859472 46.43616098 -30.7554646 43.13589281 -21.3515625 43.19921875 C-19.72408081 43.20767822 -19.72408081 43.20767822 -18.0637207 43.21630859 C-17.23445068 43.22355957 -16.40518066 43.23081055 -15.55078125 43.23828125 C-15.57696533 42.17915527 -15.60314941 41.1200293 -15.63012695 40.02880859 C-15.72094677 36.0817597 -15.77814467 32.13480225 -15.82543945 28.18701172 C-15.8505117 26.48177536 -15.88457889 24.77664571 -15.92797852 23.07177734 C-15.98895691 20.61398951 -16.01706237 18.15762764 -16.0390625 15.69921875 C-16.06486893 14.94273041 -16.09067535 14.18624207 -16.11726379 13.40682983 C-16.11937785 9.37473303 -15.72323497 6.95681437 -13.14526367 3.77197266 C-8.95099797 -0.3240177 -5.61067558 0.05011148 0 0 Z M367.44921875 192.23828125 C365.97507261 194.29060905 365.97507261 194.29060905 364.5078125 196.9609375 C363.92789551 197.96672852 363.34797852 198.97251953 362.75048828 200.00878906 C362.13544434 201.09514648 361.52040039 202.18150391 360.88671875 203.30078125 C353.58267413 216.18495787 353.58267413 216.18495787 350.5234375 220.46875 C343.46777986 230.48227331 343.45909415 239.19787711 344.44921875 251.23828125 C347.29903514 248.70738959 348.95337801 245.86377274 350.8203125 242.55859375 C351.47209473 241.41132813 352.12387695 240.2640625 352.79541016 239.08203125 C353.49291774 237.8426756 354.1900124 236.60308749 354.88671875 235.36328125 C356.3191033 232.82353525 357.75326937 230.28479756 359.1875 227.74609375 C359.54563782 227.11084778 359.90377563 226.47560181 360.27276611 225.82110596 C362.54494858 221.80105122 364.87149042 217.81859423 367.2421875 213.85546875 C367.8081665 212.9001123 368.37414551 211.94475586 368.95727539 210.96044922 C370.01567257 209.17860888 371.08606188 207.40382421 372.16967773 205.63720703 C372.86879272 204.44973877 372.86879272 204.44973877 373.58203125 203.23828125 C373.99340332 202.55765625 374.40477539 201.87703125 374.82861328 201.17578125 C375.67789869 199.19744291 375.67789869 199.19744291 374.69091797 197.09765625 C373.21265643 194.88404243 371.69966826 193.6448122 369.44921875 192.23828125 C368.78921875 192.23828125 368.12921875 192.23828125 367.44921875 192.23828125 Z " fill="#020202" transform="translate(83.55078125,-0.23828125)"/>
<path d="M0 0 C115.83 0 231.66 0 351 0 C344.12066718 13.75866564 344.12066718 13.75866564 340.25 20.1875 C339.39174541 21.62879808 338.53367858 23.07020799 337.67578125 24.51171875 C337.23959473 25.24181152 336.8034082 25.9719043 336.35400391 26.72412109 C334.94804431 29.08732978 333.55610095 31.45831086 332.16796875 33.83203125 C331.71067383 34.61360596 331.25337891 35.39518066 330.78222656 36.20043945 C329.89932134 37.71025867 329.01713643 39.22049938 328.13574219 40.73120117 C325.1115064 45.8884936 325.1115064 45.8884936 324 47 C322.4868549 47.09825156 320.96912351 47.12662861 319.45279217 47.12749195 C318.46398357 47.1304996 317.47517497 47.13350725 316.45640248 47.13660604 C314.80732049 47.13398048 314.80732049 47.13398048 313.12492371 47.13130188 C311.96716267 47.13341759 310.80940164 47.13553331 309.61655694 47.13771313 C306.38848158 47.14269012 303.16043935 47.14320697 299.93236148 47.14197242 C296.45646458 47.14175785 292.98057701 47.14732779 289.50468445 47.15237427 C283.47675267 47.16049931 277.44882514 47.16543524 271.4208889 47.16866493 C261.89689215 47.17415272 252.37293138 47.19104122 242.84895325 47.21000671 C239.59315401 47.21636395 236.33735469 47.22267232 233.08155537 47.22898388 C232.26781971 47.23056764 231.45408406 47.2321514 230.61568975 47.23378316 C221.34592792 47.25173174 212.07616353 47.26795225 202.80639648 47.28295898 C201.53481671 47.28502279 201.53481671 47.28502279 200.23754845 47.28712829 C186.4989473 47.30905991 172.76035536 47.31981444 159.0217398 47.32732973 C144.92813271 47.33539479 130.8346048 47.35866603 116.74104291 47.3952834 C108.04171895 47.41733742 99.34255769 47.42696423 90.64320717 47.42078307 C84.68283459 47.41761358 78.72260114 47.42890463 72.76227161 47.45167748 C69.32074205 47.46437244 65.87952235 47.47048285 62.43798065 47.45926094 C58.71034454 47.45044143 54.98359126 47.46595567 51.25602722 47.48774719 C50.16333139 47.47930466 49.07063556 47.47086212 47.94482774 47.46216375 C42.28333406 47.44988855 42.28333406 47.44988855 37.2886858 49.8054533 C35.34618082 53.11341083 36.0633501 55.38720752 37 59 C39.46974458 61.46974458 40.15760302 61.25246855 43.55648994 61.26171303 C45.00458886 61.27291127 45.00458886 61.27291127 46.4819423 61.28433573 C47.55001834 61.282401 48.61809439 61.28046626 49.71853638 61.2784729 C50.84730568 61.2842653 51.97607498 61.2900577 53.13904941 61.29602563 C56.9470574 61.31312281 60.75494492 61.31591048 64.56298828 61.31884766 C67.28246878 61.32703153 70.00193495 61.33821872 72.72140503 61.34928894 C78.58944305 61.37159642 84.45746353 61.38658867 90.32553482 61.39665604 C98.80984392 61.41122237 107.29409192 61.43675335 115.77836524 61.46498732 C129.54249427 61.51049262 143.30663208 61.54709193 157.07080078 61.578125 C170.44386334 61.60829526 183.81690441 61.64263849 197.18994141 61.68261719 C198.4257694 61.68630951 198.4257694 61.68630951 199.68656363 61.69007643 C203.81962623 61.70245073 207.95268858 61.71490732 212.08575082 61.72740483 C246.39047123 61.83102857 280.69521606 61.92021332 315 62 C313.5448444 65.73074011 311.88727869 69.11162397 309.875 72.578125 C308.93720703 74.19847656 308.93720703 74.19847656 307.98046875 75.8515625 C307.00013672 77.53378906 307.00013672 77.53378906 306 79.25 C305.37738281 80.32507813 304.75476563 81.40015625 304.11328125 82.5078125 C302.8362431 84.70960242 301.53481462 86.89743685 300.20871067 89.07002831 C298.61963754 91.76367261 297.3849751 94.43930873 296.24538326 97.34972572 C293.92404863 102.810382 291.44940114 108.54393286 285.70056462 110.97064161 C278.58496365 112.56402893 271.29707449 112.15763846 264.05493164 111.97412109 C261.60514195 111.97427706 259.15534292 111.98196464 256.70559692 111.99659729 C251.44265673 112.01148247 246.18279238 111.97481727 240.92061043 111.8909111 C233.30960123 111.76990932 225.70067456 111.7463691 218.08881634 111.7465864 C205.73382431 111.74459722 193.38045006 111.66913256 181.02612305 111.54492188 C169.03788131 111.42459075 157.05002773 111.33152856 145.0612793 111.28027344 C144.32184084 111.27709792 143.58240239 111.27392241 142.82055671 111.27065067 C134.75065078 111.2366289 126.68072724 111.20857918 118.61079311 111.18223 C116.47176257 111.17513495 114.3327322 111.16799517 112.19370199 111.16080086 C110.78393989 111.15609103 109.37417748 111.15147404 107.96441477 111.14695139 C98.9924597 111.11766315 90.02115992 111.06260872 81.04954255 110.97956634 C75.91654101 110.93236756 70.78345719 110.89855425 65.65034866 110.86526299 C63.26335512 110.84684637 60.87639601 110.82311773 58.48951149 110.79379845 C55.24177282 110.75428342 51.99439699 110.73282568 48.74647522 110.71566772 C47.79318882 110.69922411 46.83990241 110.6827805 45.85772854 110.6658386 C44.55697106 110.66429759 44.55697106 110.66429759 43.22993565 110.66272545 C42.48009264 110.65540882 41.73024963 110.64809218 40.9576841 110.64055383 C38.42029984 111.1064375 37.54532164 111.96581601 36 114 C35.48819644 117.43639535 35.49402412 119.23619731 37.43019485 122.15896988 C41.31926112 124.94512982 44.87922799 124.5584916 49.55438232 124.51898193 C50.53376904 124.52648319 51.51315575 124.53398444 52.52222085 124.541713 C55.81287891 124.56205661 59.10285232 124.55387421 62.39355469 124.54589844 C64.74880152 124.55462979 67.10404241 124.56511403 69.45927429 124.57722473 C75.86177272 124.60515871 82.26407831 124.60848777 88.66662884 124.60750484 C94.67719666 124.60841476 100.68770739 124.63142269 106.69823125 124.65247145 C118.60333628 124.69356554 130.50840705 124.71686867 142.41357422 124.72900391 C153.97838638 124.74083027 165.54313401 124.76102285 177.10791016 124.79248047 C177.82075121 124.79441657 178.53359225 124.79635267 179.26803455 124.79834744 C182.84414543 124.80811195 186.42025583 124.81804107 189.99636602 124.82805204 C219.6642093 124.91089132 249.33206131 124.96457013 279 125 C278.0365388 126.76770057 277.07291516 128.53531261 276.10922241 130.30288696 C275.30432153 131.77940955 275.30432153 131.77940955 274.48316002 133.28576088 C271.90431158 138.0051514 269.26704408 142.69079624 266.625 147.375 C266.0990625 148.3134375 265.573125 149.251875 265.03125 150.21875 C263.97451223 152.09228991 262.89487654 153.95314647 261.78997421 155.79869175 C259.9344753 158.96268398 259.9344753 158.96268398 258.63046646 162.36841488 C254.64920234 170.98251612 254.64920234 170.98251612 250.07359219 172.73987889 C244.0189207 173.967463 237.83717915 173.64545844 231.69433594 173.50415039 C229.61099594 173.50379725 227.52764816 173.50922584 225.44433594 173.51998901 C219.79875991 173.53335194 214.15653892 173.46744282 208.51160717 173.38832402 C202.60384395 173.32020955 196.69622989 173.32890211 190.78814697 173.33042908 C179.60112403 173.32239297 168.41548377 173.25164961 157.22890496 173.15546268 C137.18165091 172.98535493 117.13385706 172.92612272 97.08597779 172.88332742 C90.04852775 172.86587407 83.01184191 172.82237485 75.97467756 172.75707924 C71.60421699 172.7194844 67.23376835 172.69751167 62.8631897 172.67898178 C60.83298518 172.66671422 58.8028094 172.64744771 56.77274323 172.62075996 C54.00676039 172.58512438 51.24170713 172.57385009 48.4755249 172.5684967 C47.66775219 172.55186873 46.85997947 172.53524076 46.0277288 172.5181089 C42.47956759 172.53452402 40.39334448 172.72091792 37.46246719 174.80040646 C35.65012068 177.0634377 35.65012068 177.0634377 36.125 180.625 C36.70740714 184.04542055 36.70740714 184.04542055 39 186 C41.69493092 186.20550421 44.28833886 186.28509482 46.98513794 186.2784729 C48.23726824 186.2871615 48.23726824 186.2871615 49.51469409 186.29602563 C52.32770565 186.31310783 55.14055395 186.31590916 57.95361328 186.31884766 C59.96373908 186.32814017 61.97386099 186.33830782 63.98397827 186.34928894 C69.45475149 186.37667934 74.92549883 186.39176504 80.39632273 186.40471697 C86.10855497 186.42030809 91.82073406 186.44711102 97.53292847 186.4727478 C108.35596154 186.51960697 119.17900454 186.55631646 130.00208747 186.58942068 C142.32115838 186.62759173 154.640176 186.67701496 166.95920205 186.72740483 C192.30609524 186.83083082 217.65302264 186.92005643 243 187 C242.03948849 188.93010475 241.07794046 190.85969369 240.11595154 192.7890625 C239.58060004 193.86365723 239.04524855 194.93825195 238.49367428 196.04541016 C236.95411454 199.09076459 235.33026713 202.0602758 233.59765625 205 C233.01693359 205.99 232.43621094 206.98 231.83789062 208 C231.25201172 208.99 230.66613281 209.98 230.0625 211 C229.48048828 211.99 228.89847656 212.98 228.29882812 214 C227.19590562 215.87606751 226.09142462 217.75122067 224.98461914 219.625 C222.97284125 222.8393818 222.97284125 222.8393818 221.87242413 225.90514278 C220.25898836 229.52500806 218.74642483 232.12678847 216 235 C210.36019524 236.79632843 204.87361085 236.54930565 199.00488281 236.40649414 C197.26488526 236.40806149 195.52488559 236.41495414 193.78492737 236.42675781 C189.07116936 236.44409504 184.36077446 236.38819728 179.64758778 236.31986165 C174.71492871 236.26172204 169.78247409 236.27393582 164.84954834 236.27940369 C155.51003425 236.27963218 146.17189678 236.22141506 136.83277297 236.1399855 C123.11369684 236.02247939 109.39433935 235.98112508 95.67481613 235.95396328 C94.66948373 235.95196314 93.66415133 235.94996301 92.62835431 235.94790226 C90.62437198 235.94398756 88.62038926 235.94026673 86.6164062 235.93674558 C80.74036338 235.92427923 74.86491485 235.89064282 68.98908949 235.83892739 C65.34086387 235.80878657 61.69263561 235.79013548 58.04432487 235.77379608 C56.34912736 235.76340119 54.65395299 235.74774026 52.95885658 235.72650719 C50.65017358 235.69808137 48.34209798 235.68785485 46.03326416 235.68202209 C44.7398624 235.67104524 43.44646065 235.66006838 42.1138649 235.64875889 C39.04173769 235.74442321 39.04173769 235.74442321 37.08776474 237.33627987 C35.35189024 239.99127432 35.55926416 241.9148491 36 245 C38.22078738 248.00807507 39.41804764 248.90609885 43.14714432 249.50780869 C44.3970956 249.51149586 45.64704689 249.51518303 46.93487549 249.51898193 C47.63249709 249.52648319 48.33011869 249.53398444 49.04888034 249.541713 C51.38607917 249.56201021 53.72230973 249.55388411 56.05957031 249.54589844 C57.73502564 249.5546324 59.41047263 249.56511757 61.08590698 249.57722473 C65.63517795 249.60512718 70.18417733 249.60848848 74.73352146 249.60750484 C79.48750989 249.61063031 84.24137533 249.63624085 88.99530029 249.65948486 C97.99790432 249.70007655 107.00043586 249.72039301 116.00311732 249.73345876 C126.25217331 249.74931808 136.50110573 249.78772919 146.75009012 249.82805204 C167.83335269 249.91049435 188.91660949 249.96455939 210 250 C210.17935637 260.11868876 209.61421746 270.15663448 209 280.25 C208.90332384 281.88149137 208.80696747 283.51300172 208.7109375 285.14453125 C208.47763785 289.09658229 208.24003545 293.04835259 208 297 C207.13786015 297.00146656 206.27572029 297.00293312 205.38745499 297.00444412 C184.42280836 297.04147389 163.4583239 297.10043761 142.49380875 297.18390274 C132.35557027 297.22373511 122.21740988 297.25610624 112.07910156 297.27099609 C103.24394182 297.28399089 94.4089536 297.31089979 85.57389045 297.35461307 C80.89448799 297.3772769 76.21529748 297.39290774 71.53583527 297.39188385 C67.13298432 297.39114013 62.73060277 297.40897422 58.32787323 297.44116783 C56.71056762 297.4496991 55.09320956 297.45139496 53.47589111 297.44580269 C51.26969105 297.43918931 49.06499617 297.4570163 46.85894775 297.48101807 C45.62374516 297.48470524 44.38854256 297.48839241 43.11590958 297.49219131 C39.92383931 297.76799432 39.92383931 297.76799432 37.56350327 299.80587387 C35.63370618 302.04355117 35.63370618 302.04355117 36.125 305.625 C36.70740714 309.04542055 36.70740714 309.04542055 39 311 C41.41549757 311.20165064 43.71703084 311.27810827 46.13406372 311.26742554 C47.24909533 311.27422221 47.24909533 311.27422221 48.38665283 311.28115618 C50.89080606 311.29387005 53.39474374 311.29217532 55.89892578 311.29052734 C57.68917625 311.29650847 59.47942412 311.30331305 61.26966858 311.31088257 C66.1439125 311.3285977 71.01808626 311.33324042 75.89235926 311.33451414 C79.96019545 311.33641066 84.02801522 311.34376582 88.0958451 311.35085833 C97.69639214 311.3671628 107.29690165 311.37202562 116.89746094 311.37060547 C126.79832366 311.36940525 136.69896796 311.39047838 146.59977543 311.4220928 C155.09839469 311.44826216 163.59694268 311.4589724 172.09560192 311.45769465 C177.17195797 311.45718497 182.24812027 311.46287075 187.32443619 311.48405075 C192.10316611 311.50344276 196.88151774 311.50355095 201.66026115 311.48901749 C203.4113705 311.4869291 205.16250357 311.49163209 206.91357231 311.5037384 C219.05084694 311.73862186 219.05084694 311.73862186 230 307 C231.18553467 306.29447998 231.18553467 306.29447998 232.39501953 305.57470703 C233.05099121 305.14013184 233.70696289 304.70555664 234.3828125 304.2578125 C235.14634033 303.75741455 235.90986816 303.2570166 236.6965332 302.74145508 C238.37428399 301.62469747 240.04976362 300.50452297 241.72338867 299.3815918 C246.27938877 296.3476884 250.8247652 293.50454393 255.66796875 290.94921875 C270.89479549 282.66899939 277.56530996 272.76682205 285.23339844 257.45214844 C288.12554997 251.80054221 291.35454623 246.35141184 294.5625 240.875 C295.81633167 238.70383341 297.06894406 236.53196222 298.3203125 234.359375 C301.83917845 228.26938606 305.38606941 222.19603683 308.9375 216.125 C314.01275123 207.44737759 319.02258767 198.73394432 324 190 C329.53141282 180.29394225 335.11133617 170.6181301 340.75927734 160.97924805 C343.88837144 155.63524265 346.99296574 150.27847728 350.06640625 144.90234375 C350.75053361 143.7078244 351.43469675 142.51332555 352.11889648 141.31884766 C353.42637414 139.03589511 354.72836335 136.75009119 356.02758789 134.46240234 C356.61918701 133.42937988 357.21078613 132.39635742 357.8203125 131.33203125 C358.33867676 130.42171143 358.85704102 129.5113916 359.39111328 128.57348633 C361.08054387 125.87116647 362.96415968 123.44891336 365 121 C367.37783116 140.00377759 361.62062747 152.36289183 351 168 C350.67 168.33 350.34 168.66 350 169 C349.59096936 173.64064337 349.59096936 173.64064337 351.0625 177.9375 C354.24287644 179.6815774 356.4568339 179.55944728 360 179 C362.42422186 176.11490087 362.42422186 176.11490087 364 173 C364.33 173 364.66 173 365 173 C365.07009178 195.69624877 365.12298904 218.39247968 365.15543652 241.08881474 C365.17090312 251.62719911 365.19198874 262.16551622 365.22631836 272.70385742 C365.25622698 281.8894432 365.27557651 291.07498026 365.28226548 300.26061338 C365.28617525 305.12400464 365.29535953 309.98725653 365.31719017 314.8506031 C365.33757838 319.4297851 365.34382906 324.00877054 365.33932304 328.58799362 C365.3401472 330.26696148 365.34609894 331.94593602 365.35761642 333.62486458 C365.37259737 335.92166326 365.36893362 338.217725 365.36076355 340.51454163 C365.36352893 341.79859925 365.36629431 343.08265688 365.36914349 344.40562534 C364.82788939 349.67585246 363.43999602 353.59692696 359.5625 357.375 C355.92890233 359.67923267 352.91491616 360.12470196 348.66149139 360.12749195 C347.79559529 360.1304996 346.92969918 360.13350725 346.0375638 360.13660604 C345.09087942 360.13485567 344.14419503 360.13310529 343.16882324 360.13130188 C342.15959037 360.13341759 341.1503575 360.13553331 340.11054182 360.13771313 C336.71886602 360.14371869 333.32722736 360.14271259 329.93554688 360.1418457 C327.5079797 360.14487675 325.0804131 360.14839805 322.65284729 360.15237427 C317.42054755 360.16026655 312.1882522 360.16542975 306.95594788 360.16866493 C298.68769276 360.17416291 290.41947885 360.19106096 282.15124512 360.21000671 C279.32251746 360.2163632 276.4937897 360.22267164 273.66506195 360.22898388 C272.95816515 360.23056764 272.25126835 360.2321514 271.52295044 360.23378316 C263.47803111 360.25171631 255.43310889 360.26794532 247.38818359 360.28295898 C246.65281299 360.28433486 245.91744239 360.28571073 245.15978783 360.28712829 C233.23523835 360.30907213 221.31069948 360.31981823 209.38613337 360.32732973 C197.14564537 360.33539575 184.90524853 360.35866756 172.66481256 360.3952834 C165.11304878 360.41732651 157.56147234 360.42696759 150.00967801 360.42078307 C144.22650066 360.41723854 138.4435312 360.43444279 132.66041374 360.45946121 C130.28519119 360.466403 127.90993742 360.46646773 125.53471565 360.45926094 C122.29983659 360.45043476 119.06597298 360.46596564 115.83117676 360.48774719 C114.88449237 360.47930466 113.93780799 360.47086212 112.9624362 360.46216375 C107.85678184 360.48647185 107.85678184 360.48647185 103.44805145 362.8445158 C101.84295406 365.02691221 101.84295406 365.02691221 101 368 C94.4 368 87.8 368 81 368 C80.01 366.02 79.02 364.04 78 362 C75.21445001 360.607225 72.92618216 360.86758443 69.80957031 360.8581543 C68.5077179 360.85111984 67.20586548 360.84408539 65.86456299 360.83683777 C64.81735958 360.83411393 64.81735958 360.83411393 63.74900055 360.83133507 C61.5627738 360.82416843 59.37677135 360.80849936 57.19061279 360.78999329 C50.97411226 360.73754201 44.75773254 360.68957611 38.54101562 360.67407227 C34.73888214 360.66396822 30.93731013 360.63458048 27.13539886 360.59275246 C25.6890361 360.58046873 24.24259392 360.57531641 22.79618073 360.57755089 C20.76672931 360.57991391 18.73730091 360.55548836 16.70800781 360.5300293 C15.55488098 360.52416306 14.40175415 360.51829681 13.21368408 360.51225281 C8.47806463 359.7574075 5.32374038 357.50632526 2.1875 353.9375 C-0.032196 350.31589074 -0.12453562 347.32984282 -0.12304783 343.18039417 C-0.1250387 341.95833208 -0.12702957 340.73626999 -0.12908077 339.47717571 C-0.12622853 338.11473255 -0.12328314 336.75228958 -0.12025452 335.3898468 C-0.12069177 333.95119203 -0.12156838 332.51253733 -0.12284851 331.07388306 C-0.12509842 327.1031498 -0.12106859 323.13244335 -0.11607273 319.1617135 C-0.11171803 314.82058623 -0.11316655 310.47946027 -0.11389065 306.13833141 C-0.11442316 297.70459109 -0.10979753 289.27086138 -0.10338932 280.83712379 C-0.09620098 271.08554729 -0.09539521 261.3339772 -0.09460449 251.58239746 C-0.08935004 225.82576329 -0.07538898 200.06913149 -0.0625 174.3125 C-0.041875 116.789375 -0.02125 59.26625 0 0 Z " fill="#E6EBF5" transform="translate(48,137)"/>
<path d="M0 0 C12.87 0 25.74 0 39 0 C39.1875 12.875 39.1875 12.875 39.20776367 16.87060547 C39.41682734 24.83659002 40.99771767 30.17183578 45 37 C45.33 37.99 45.66 38.98 46 40 C47.86327162 41.10633242 47.86327162 41.10633242 50 42 C50.83337891 42.52980469 50.83337891 42.52980469 51.68359375 43.0703125 C57.84198533 46.77357693 63.97845593 46.85083582 71 46 C78.38094035 43.97322196 83.31100861 39.99781307 87.25 33.4375 C89.64050213 28.74187081 90.13619689 25.17369061 90.31640625 19.921875 C90.35451416 18.87612305 90.39262207 17.83037109 90.43188477 16.75292969 C90.47498779 15.43196289 90.51809082 14.11099609 90.5625 12.75 C90.706875 8.5425 90.85125 4.335 91 0 C103.87 0 116.74 0 130 0 C130.1875 13.375 130.1875 13.375 130.20776367 17.52880859 C130.42517561 26.12685886 131.5678836 33.75070103 138.01831055 39.93505859 C144.65436577 45.34621672 151.31731186 46.52852849 159.7421875 46.375 C166.28816172 45.62150656 170.89803619 42.44588625 175.375 37.75 C181.23123608 30.00057475 181.49607055 21.34356276 181.6875 11.9375 C181.8421875 6.0284375 181.8421875 6.0284375 182 0 C194.87 0 207.74 0 221 0 C221.1875 13.375 221.1875 13.375 221.20776367 17.52880859 C221.42254228 26.02271791 222.73103967 32.99750215 228.37109375 39.60668945 C234.3026687 45.08314864 241.33598145 46.60523432 249.19140625 46.34375 C256.4780212 45.45192508 262.04988782 42.83535917 266.74609375 37.171875 C271.31209191 29.26316791 271.52160895 21.97707548 271.6875 13 C271.72166016 11.74832031 271.75582031 10.49664062 271.79101562 9.20703125 C271.87300969 6.13811043 271.94232019 3.06945794 272 0 C274.08960905 -0.04905892 276.17954943 -0.08414808 278.26953125 -0.11328125 C279.43331299 -0.13430908 280.59709473 -0.15533691 281.79614258 -0.17700195 C286.18810576 0.0656387 287.845998 1.01648459 291 4 C302.10016555 20.65024832 293 43.98889197 293 64 C172.55 64 52.1 64 -72 64 C-72 8.00840336 -72 8.00840336 -66.140625 2.13671875 C-63.23551219 0.59404023 -61.01674334 0.70597576 -57.75 0.8125 C-56.13351563 0.85310547 -56.13351563 0.85310547 -54.484375 0.89453125 C-53.66453125 0.92933594 -52.8446875 0.96414062 -52 1 C-51.98541748 1.6798999 -51.97083496 2.3597998 -51.95581055 3.06030273 C-51.8806358 6.18656282 -51.78420768 9.31183482 -51.6875 12.4375 C-51.66494141 13.50677734 -51.64238281 14.57605469 -51.61914062 15.67773438 C-51.29051032 25.44701701 -49.84300151 33.07283002 -42.93359375 40.26953125 C-36.81303313 45.74712389 -31.26901417 46.60289934 -23.12109375 46.3203125 C-16.09742192 45.5994851 -11.04475131 43.04475131 -6 38 C-2.01366253 32.33252341 -0.90867564 27.51989068 -0.68359375 20.703125 C-0.64548584 19.61676758 -0.60737793 18.53041016 -0.56811523 17.41113281 C-0.52501221 16.03795898 -0.48190918 14.66478516 -0.4375 13.25 C-0.293125 8.8775 -0.14875 4.505 0 0 Z " fill="#3F6F91" transform="translate(120,58)"/>
<path d="M0 0 C3.60450854 0.68423846 6.39352907 2.19060689 9.578125 3.984375 C11.19654297 4.89316406 11.19654297 4.89316406 12.84765625 5.8203125 C13.97042969 6.45710937 15.09320313 7.09390625 16.25 7.75 C17.35730469 8.37132812 18.46460938 8.99265625 19.60546875 9.6328125 C25.49697885 12.95335446 31.30127416 16.35837519 37 20 C35.575794 23.80962064 33.82091117 27.24403968 31.796875 30.76953125 C31.15363281 31.89294922 30.51039063 33.01636719 29.84765625 34.17382812 C29.14855234 35.38678495 28.44933056 36.59967384 27.75 37.8125 C27.02454649 39.07606103 26.29928874 40.33973448 25.57421875 41.60351562 C20.52219693 50.39931183 15.4170285 59.16379738 10.29199219 67.91723633 C5.80992366 75.58243398 1.39596222 83.28527105 -3 91 C-8.53985933 100.72124506 -14.13374932 110.40894868 -19.78344727 120.06689453 C-25.93766742 130.59084625 -32.02369996 141.15380137 -38.10888672 151.71777344 C-41.23680148 157.14659942 -44.36858448 162.57319281 -47.5 168 C-48.75001879 170.16665583 -50.00001878 172.3333225 -51.25 174.5 C-53.75 178.83333333 -56.25 183.16666667 -58.75 187.5 C-59.3697168 188.57419189 -59.98943359 189.64838379 -60.62792969 190.75512695 C-61.86810761 192.90473634 -63.10834127 195.05431358 -64.34863281 197.20385742 C-67.2735023 202.27309212 -70.19780833 207.34264936 -73.12011719 212.4133606 C-74.49806938 214.80426597 -75.87634172 217.19498672 -77.25463867 219.58569336 C-78.22540982 221.26983963 -79.19571874 222.95425231 -80.16601562 224.63867188 C-80.75576172 225.66154297 -81.34550781 226.68441406 -81.953125 227.73828125 C-82.47036133 228.63587158 -82.98759766 229.53346191 -83.52050781 230.45825195 C-84.9917272 232.98578745 -86.48951829 235.4957655 -88 238 C-92.21985015 236.71708464 -95.82670261 235.11745131 -99.625 232.8828125 C-100.66140625 232.27566406 -101.6978125 231.66851562 -102.765625 231.04296875 C-103.83296875 230.41003906 -104.9003125 229.77710938 -106 229.125 C-107.06734375 228.49980469 -108.1346875 227.87460937 -109.234375 227.23046875 C-114.24919729 224.28020638 -119.21249955 221.30802982 -124 218 C-123.40433463 213.83414554 -121.99730495 210.85980498 -119.89453125 207.23046875 C-119.24806641 206.10705078 -118.60160156 204.98363281 -117.93554688 203.82617188 C-117.22801679 202.61319246 -116.52033047 201.40030415 -115.8125 200.1875 C-115.08209686 198.92416641 -114.35228693 197.66048969 -113.62304688 196.39648438 C-111.42501559 192.5920113 -109.21392293 188.79524129 -107 185 C-106.07453369 183.41179443 -106.07453369 183.41179443 -105.13037109 181.79150391 C-102.85389912 177.88688592 -100.57564558 173.98332939 -98.29223633 170.08276367 C-93.80967532 162.41780579 -89.39598183 154.71476337 -85 147 C-79.46014067 137.27875494 -73.86625068 127.59105132 -68.21655273 117.93310547 C-62.06233258 107.40915375 -55.97630004 96.84619863 -49.89111328 86.28222656 C-46.76319852 80.85340058 -43.63141552 75.42680719 -40.5 70 C-39.24998121 67.83334417 -37.99998122 65.6666775 -36.75 63.5 C-34.25 59.16666667 -31.75 54.83333333 -29.25 50.5 C-28.6302832 49.42580811 -28.01056641 48.35161621 -27.37207031 47.24487305 C-26.13189239 45.09526366 -24.89165873 42.94568642 -23.65136719 40.79614258 C-20.7264977 35.72690788 -17.80219167 30.65735064 -14.87988281 25.5866394 C-13.50193062 23.19573403 -12.12365828 20.80501328 -10.74536133 18.41430664 C-9.77459018 16.73016037 -8.80428126 15.04574769 -7.83398438 13.36132812 C-7.24423828 12.33845703 -6.65449219 11.31558594 -6.046875 10.26171875 C-5.52963867 9.36412842 -5.01240234 8.46653809 -4.47949219 7.54174805 C-3.0082728 5.01421255 -1.51048171 2.5042345 0 0 Z " fill="#E07F85" transform="translate(401,163)"/>
<path d="M0 0 C0.33 0 0.66 0 1 0 C3.37783116 19.00377759 -2.37937253 31.36289183 -13 47 C-13.495 47.495 -13.495 47.495 -14 48 C-14.40903064 52.64064337 -14.40903064 52.64064337 -12.9375 56.9375 C-9.75712356 58.6815774 -7.5431661 58.55944728 -4 58 C-1.57577814 55.11490087 -1.57577814 55.11490087 0 52 C0.33 52 0.66 52 1 52 C1.07009178 74.69624877 1.12298904 97.39247968 1.15543652 120.08881474 C1.17090312 130.62719911 1.19198874 141.16551622 1.22631836 151.70385742 C1.25622698 160.8894432 1.27557651 170.07498026 1.28226548 179.26061338 C1.28617525 184.12400464 1.29535953 188.98725653 1.31719017 193.8506031 C1.33757838 198.4297851 1.34382906 203.00877054 1.33932304 207.58799362 C1.3401472 209.26696148 1.34609894 210.94593602 1.35761642 212.62486458 C1.37259737 214.92166326 1.36893362 217.217725 1.36076355 219.51454163 C1.36352893 220.79859925 1.36629431 222.08265688 1.36914349 223.40562534 C0.82788939 228.67585246 -0.56000398 232.59692696 -4.4375 236.375 C-8.99026614 239.26211999 -12.90438009 239.11199648 -18.25 239.0625 C-19.51328125 239.05347656 -20.7765625 239.04445313 -22.078125 239.03515625 C-23.04234375 239.02355469 -24.0065625 239.01195312 -25 239 C-24.57505359 238.23831512 -24.57505359 238.23831512 -24.14152241 237.46124268 C-19.95808926 228.77981884 -20.45841407 219.94079856 -20.5300293 210.546875 C-20.52951988 208.68659849 -20.52726019 206.82632176 -20.52339172 204.96604919 C-20.51799478 199.9396618 -20.53732004 194.9136461 -20.56149268 189.88732529 C-20.5828457 184.62321905 -20.582196 179.35911336 -20.58418274 174.0949707 C-20.59061904 165.26523468 -20.61183042 156.43563776 -20.64331055 147.60595703 C-20.68370114 136.26188265 -20.70101457 124.91789856 -20.71061993 113.57376099 C-20.71890927 103.8226046 -20.7361431 94.07146743 -20.75565743 84.32032776 C-20.76172778 81.1828316 -20.76686789 78.04533471 -20.7720089 74.90783691 C-20.78077238 69.9895851 -20.79506207 65.0713783 -20.8137188 60.15315437 C-20.81985406 58.3447017 -20.8242971 56.53624241 -20.82696152 54.7277813 C-20.830927 52.26794052 -20.84102908 49.8082025 -20.85282898 47.34838867 C-20.85255244 46.26427515 -20.85255244 46.26427515 -20.85227031 45.15826035 C-20.82643969 41.4548699 -20.82643969 41.4548699 -22 38 C-20.73999023 35.36132812 -20.73999023 35.36132812 -18.80859375 32.03125 C-18.46627213 31.43630737 -18.1239505 30.84136475 -17.77125549 30.22839355 C-16.66747605 28.3144946 -15.55259243 26.40732531 -14.4375 24.5 C-13.71217338 23.24520599 -12.98755581 21.99000184 -12.26367188 20.734375 C-10.19142535 17.14695961 -8.09802244 13.57240503 -6 10 C-5.39559082 8.96488281 -4.79118164 7.92976563 -4.16845703 6.86328125 C-3.62946777 5.94933594 -3.09047852 5.03539062 -2.53515625 4.09375 C-2.06601807 3.29646484 -1.59687988 2.49917969 -1.11352539 1.67773438 C-0.74606201 1.12408203 -0.37859863 0.57042969 0 0 Z " fill="#D6E0EF" transform="translate(412,258)"/>
<path d="M0 0 C2.64 1.32 5.28 2.64 8 4 C6.575794 7.80962064 4.82091117 11.24403968 2.796875 14.76953125 C2.15363281 15.89294922 1.51039063 17.01636719 0.84765625 18.17382812 C0.14855234 19.38678495 -0.55066944 20.59967384 -1.25 21.8125 C-1.97545351 23.07606103 -2.70071126 24.33973448 -3.42578125 25.60351562 C-8.47780307 34.39931183 -13.5829715 43.16379738 -18.70800781 51.91723633 C-23.19007634 59.58243398 -27.60403778 67.28527105 -32 75 C-37.53985933 84.72124506 -43.13374932 94.40894868 -48.78344727 104.06689453 C-54.93766742 114.59084625 -61.02369996 125.15380137 -67.10888672 135.71777344 C-70.23680148 141.14659942 -73.36858448 146.57319281 -76.5 152 C-77.75001879 154.16665583 -79.00001878 156.3333225 -80.25 158.5 C-82.75 162.83333333 -85.25 167.16666667 -87.75 171.5 C-88.3697168 172.57419189 -88.98943359 173.64838379 -89.62792969 174.75512695 C-90.86810761 176.90473634 -92.10834127 179.05431358 -93.34863281 181.20385742 C-96.2735023 186.27309212 -99.19780833 191.34264936 -102.12011719 196.4133606 C-103.49806938 198.80426597 -104.87634172 201.19498672 -106.25463867 203.58569336 C-107.22540982 205.26983963 -108.19571874 206.95425231 -109.16601562 208.63867188 C-109.75576172 209.66154297 -110.34550781 210.68441406 -110.953125 211.73828125 C-111.47036133 212.63587158 -111.98759766 213.53346191 -112.52050781 214.45825195 C-113.9917272 216.98578745 -115.48951829 219.4957655 -117 222 C-120.86848614 220.88243734 -123.28922757 219.97126708 -126 217 C-125.64518555 216.48953125 -125.29037109 215.9790625 -124.92480469 215.453125 C-120.63980513 209.17180011 -116.91560956 202.65727754 -113.25 196 C-109.25824176 188.81107379 -105.26001356 181.63363437 -101.0625 174.5625 C-96.92682031 167.59230165 -92.85878933 160.58498988 -88.8125 153.5625 C-88.17449463 152.45527588 -87.53648926 151.34805176 -86.87915039 150.20727539 C-85.57110523 147.93662932 -84.26324552 145.66587642 -82.95556641 143.39501953 C-79.80667946 137.9283002 -76.65316736 132.46425113 -73.5 127 C-72.2499765 124.83334689 -70.99997653 122.66668021 -69.75 120.5 C-57.25 98.83333333 -44.75 77.16666667 -32.25 55.5 C-31.32078735 53.88931641 -31.32078735 53.88931641 -30.37280273 52.24609375 C-29.13023981 50.0923828 -27.88756511 47.93873633 -26.64477539 45.78515625 C-23.74685377 40.76315738 -20.84996651 35.74057193 -17.95724487 30.71557617 C-16.94052802 28.94954478 -15.92344342 27.18372569 -14.90625 25.41796875 C-13.63599127 23.21265845 -12.36640982 21.00695784 -11.09765625 18.80078125 C-7.46359212 12.49366105 -3.76901741 6.22744663 0 0 Z " fill="#DA616C" transform="translate(430,179)"/>
<path d="M0 0 C7.59 0 15.18 0 23 0 C23.33 2.64 23.66 5.28 24 8 C26.1385485 10.1385485 27.13275314 10.42655063 30 11 C30.13487595 13.77245014 30.23400807 16.53837088 30.3125 19.3125 C30.35439453 20.09818359 30.39628906 20.88386719 30.43945312 21.69335938 C30.48638987 23.89938649 30.47696388 25.8441693 30 28 C27.60546875 29.85546875 27.60546875 29.85546875 25 31 C22.54006367 34.6899045 22.72076991 37.50651968 22.7265625 41.7734375 C22.70627127 43.33594463 22.68542045 44.89844458 22.6640625 46.4609375 C22.64147836 48.91868151 22.62499728 51.37614142 22.61914062 53.83398438 C22.60959777 56.21015504 22.57579991 58.5850531 22.5390625 60.9609375 C22.54410797 61.69130219 22.54915344 62.42166687 22.55435181 63.17416382 C22.48508245 66.78127203 22.08864166 68.85884384 20.15380859 71.93994141 C16.78618208 75.16098341 13.57056673 75.34396869 9 75.28515625 C5.79572554 74.82829681 4.17579249 73.30378028 2 71 C-0.27163541 67.49118938 -0.24255987 64.52092456 -0.22705078 60.39550781 C-0.22748886 59.41439781 -0.22748886 59.41439781 -0.22793579 58.41346741 C-0.22654676 56.25988317 -0.21100608 54.10664851 -0.1953125 51.953125 C-0.19158084 50.45668731 -0.18873459 48.96024717 -0.18673706 47.46380615 C-0.1791126 43.5313641 -0.15947438 39.59907053 -0.1373291 35.66668701 C-0.11684506 31.65150969 -0.10772988 27.6363083 -0.09765625 23.62109375 C-0.07622728 15.74732021 -0.04105489 7.8736957 0 0 Z " fill="#9CC4F9" transform="translate(355,15)"/>
<path d="M0 0 C2.08960905 -0.04905892 4.17954943 -0.08414808 6.26953125 -0.11328125 C7.43331299 -0.13430908 8.59709473 -0.15533691 9.79614258 -0.17700195 C14.18810576 0.0656387 15.845998 1.01648459 19 4 C30.10016555 20.65024832 21 43.98889197 21 64 C-99.45 64 -219.9 64 -344 64 C-344 63.67 -344 63.34 -344 63 C-230.48 63 -116.96 63 0 63 C1.21176732 46.43881265 1.21176732 46.43881265 -2 31 C-1.6776709 29.66396376 -1.34168671 28.33121714 -1 27 C-0.85321886 24.90352557 -0.75294862 22.80358677 -0.68359375 20.703125 C-0.64169922 19.49785156 -0.59980469 18.29257813 -0.55664062 17.05078125 C-0.49766602 15.16939453 -0.49766602 15.16939453 -0.4375 13.25 C-0.39431641 11.98027344 -0.35113281 10.71054688 -0.30664062 9.40234375 C-0.20060278 6.26833635 -0.09853942 3.13425067 0 0 Z " fill="#305570" transform="translate(392,58)"/>
<path d="M0 0 C7.26 0 14.52 0 22 0 C22.09049025 8.63207393 22.1638245 17.26383111 22.20724869 25.89627266 C22.2280937 29.90498652 22.25635406 33.91335811 22.30175781 37.921875 C22.34532699 41.79279809 22.36916032 45.66339265 22.37950897 49.53454208 C22.3868806 51.00891158 22.40127592 52.48326378 22.42292023 53.95749283 C22.45210357 56.02820459 22.4559501 58.0975716 22.45410156 60.16845703 C22.46298401 61.34538116 22.47186646 62.5223053 22.48101807 63.7348938 C21.89237245 67.73056584 20.5068043 69.86750444 18 73 C13.99745384 75.66836411 10.70686701 75.8340238 6 75 C3.24430553 72.81840855 1.56411253 71.12822506 0 68 C-0.09182083 65.8452107 -0.11750462 63.68750282 -0.11352539 61.53076172 C-0.11367142 60.86722687 -0.11381744 60.20369202 -0.1139679 59.52005005 C-0.11327031 57.32322947 -0.10548514 55.1264933 -0.09765625 52.9296875 C-0.09579152 51.40796963 -0.09436788 49.88625116 -0.09336853 48.36453247 C-0.08954767 44.35648953 -0.07972104 40.34848274 -0.06866455 36.3404541 C-0.05844118 32.25171396 -0.05386892 28.16296799 -0.04882812 24.07421875 C-0.0380984 16.04946072 -0.02050507 8.02473902 0 0 Z " fill="#9BC2F6" transform="translate(265,15)"/>
<path d="M0 0 C7.26 0 14.52 0 22 0 C22.0678227 8.77973596 22.12284303 17.55929744 22.15543652 26.33923626 C22.1710811 30.41627944 22.19229708 34.49313383 22.22631836 38.57006836 C22.25895524 42.50581018 22.2768621 46.4413706 22.28463173 50.37723732 C22.2901675 51.87752957 22.30097761 53.37781209 22.31719017 54.87802696 C22.33902272 56.98229672 22.3419646 59.08582044 22.34057617 61.19018555 C22.34723801 62.38709518 22.35389984 63.58400482 22.36076355 64.81718445 C21.96370149 68.32024146 21.07159691 70.18010527 19 73 C15.98972015 75.34132878 12.71954209 75.41820035 8.96484375 75.3203125 C5.79694567 74.80387583 4.16045065 73.28753598 2 71 C-0.27163541 67.49118938 -0.24255987 64.52092456 -0.22705078 60.39550781 C-0.22748886 59.41439781 -0.22748886 59.41439781 -0.22793579 58.41346741 C-0.22654676 56.25988317 -0.21100608 54.10664851 -0.1953125 51.953125 C-0.19158084 50.45668731 -0.18873459 48.96024717 -0.18673706 47.46380615 C-0.1791126 43.5313641 -0.15947438 39.59907053 -0.1373291 35.66668701 C-0.11684506 31.65150969 -0.10772988 27.6363083 -0.09765625 23.62109375 C-0.07622728 15.74732021 -0.04105489 7.8736957 0 0 Z " fill="#9CC5FA" transform="translate(83,15)"/>
<path d="M0 0 C7.26 0 14.52 0 22 0 C22.06782578 8.64935201 22.12284478 17.29852687 22.15543652 25.94808483 C22.17108035 29.96459536 22.19229492 33.98091422 22.22631836 37.99731445 C22.25895797 41.87470186 22.27686267 45.75190512 22.28463173 49.62941933 C22.29016701 51.10738333 22.30097619 52.58533746 22.31719017 54.06322289 C22.33902641 56.13636282 22.34196446 58.20874564 22.34057617 60.28198242 C22.34723801 61.46112717 22.35389984 62.64027191 22.36076355 63.85514832 C21.86907734 68.1412803 20.21101945 70.6992754 17.3125 73.8125 C13.88870146 75.57066682 10.70750322 75.77565806 7 75 C3.47814744 73.02321824 1.30042837 70.9012851 0 67 C-0.08952331 64.83786607 -0.1175854 62.67301589 -0.11352539 60.5090332 C-0.11367142 59.8551059 -0.11381744 59.20117859 -0.1139679 58.5274353 C-0.11327188 56.36851674 -0.10549408 54.20968472 -0.09765625 52.05078125 C-0.09579096 50.55291287 -0.09436758 49.05504389 -0.09336853 47.55717468 C-0.08955207 43.61654981 -0.0797292 39.67596186 -0.06866455 35.73535156 C-0.05843172 31.71354675 -0.0538669 27.69173596 -0.04882812 23.66992188 C-0.03810616 15.7799291 -0.02051639 7.88997339 0 0 Z " fill="#9CC5FA" transform="translate(174,15)"/>
<path d="M0 0 C3.3 0 6.6 0 10 0 C10.04634069 9.05776647 10.08187801 18.11549213 10.10362434 27.17335129 C10.11406149 31.379282 10.12821943 35.5851316 10.15087891 39.79101562 C10.17260975 43.84993538 10.18456915 47.90877711 10.18975449 51.96775055 C10.19344981 53.51630125 10.20066583 55.06484768 10.21146011 56.61336517 C10.22597835 58.78237638 10.22797782 60.95106521 10.22705078 63.12011719 C10.231492 64.35477722 10.23593323 65.58943726 10.24050903 66.86151123 C10.01235425 69.83878492 9.56859754 71.50183979 8 74 C6.25 73.875 6.25 73.875 4 73 C0.49322111 68.63742601 -0.49606415 65.7285004 -0.45410156 60.16845703 C-0.45468567 59.51409164 -0.45526978 58.85972626 -0.45587158 58.18553162 C-0.45310522 56.04240141 -0.42208636 53.90069688 -0.390625 51.7578125 C-0.38315735 50.26423909 -0.37746689 48.77065583 -0.37347412 47.27706909 C-0.35825874 43.3608864 -0.31901342 39.44530451 -0.2746582 35.52935791 C-0.23361629 31.5274671 -0.21544416 27.52547846 -0.1953125 23.5234375 C-0.15251418 15.68201707 -0.08431375 7.84108344 0 0 Z " fill="#B4CDEF" transform="translate(355,15)"/>
<path d="M0 0 C3.3 0 6.6 0 10 0 C10.04637315 8.91011164 10.0818945 17.82018163 10.10362434 26.73038769 C10.11405441 30.86790929 10.12819942 35.00534823 10.15087891 39.14282227 C10.17263501 43.1369082 10.18457447 47.13091469 10.18975449 51.12505531 C10.19344527 52.64765994 10.20065248 54.1702603 10.21146011 55.69283104 C10.22601195 57.82811195 10.22797642 59.96306603 10.22705078 62.09838867 C10.231492 63.3130632 10.23593323 64.52773773 10.24050903 65.77922058 C10.00419726 68.94379229 9.35675219 71.15295404 8 74 C6.25 73.875 6.25 73.875 4 73 C0.49322111 68.63742601 -0.49606415 65.7285004 -0.45410156 60.16845703 C-0.45468567 59.51409164 -0.45526978 58.85972626 -0.45587158 58.18553162 C-0.45310522 56.04240141 -0.42208636 53.90069688 -0.390625 51.7578125 C-0.38315735 50.26423909 -0.37746689 48.77065583 -0.37347412 47.27706909 C-0.35825874 43.3608864 -0.31901342 39.44530451 -0.2746582 35.52935791 C-0.23361629 31.5274671 -0.21544416 27.52547846 -0.1953125 23.5234375 C-0.15251418 15.68201707 -0.08431375 7.84108344 0 0 Z " fill="#B7D0F2" transform="translate(83,15)"/>
<path d="M0 0 C3.3 0 6.6 0 10 0 C10.06966222 8.61478889 10.12289325 17.22945911 10.15543652 25.84446049 C10.17105956 29.84522041 10.19223588 33.84578692 10.22631836 37.84643555 C10.25903248 41.71086452 10.27687827 45.57510802 10.28463173 49.43966484 C10.2901537 50.91039383 10.3009367 52.38111323 10.31719017 53.85176277 C10.33912569 55.9197049 10.34196036 57.98689098 10.34057617 60.05493164 C10.34723801 61.22963516 10.35389984 62.40433868 10.36076355 63.61463928 C9.93103813 67.64712969 8.75399688 70.36330124 7 74 C3.12288785 72.52937125 1.80052439 70.69040133 0 67 C-0.36076355 63.85514832 -0.36076355 63.85514832 -0.34057617 60.28198242 C-0.34101425 59.62776306 -0.34145233 58.9735437 -0.34190369 58.29949951 C-0.33982456 56.1511787 -0.31653662 54.00365211 -0.29296875 51.85546875 C-0.28736964 50.36046271 -0.28310103 48.86545115 -0.28010559 47.37043762 C-0.26868152 43.44614314 -0.23923573 39.52218469 -0.20599365 35.59802246 C-0.17523993 31.58948308 -0.16158896 27.58088911 -0.14648438 23.57226562 C-0.11436333 15.71468999 -0.06319691 7.85738686 0 0 Z " fill="#BBD5F9" transform="translate(174,15)"/>
<path d="M0 0 C4.74297167 0.53500473 7.99706475 1.85912772 12.09765625 4.2734375 C13.79438477 5.2634375 13.79438477 5.2634375 15.52539062 6.2734375 C16.7045406 6.97376725 17.8835761 7.67428976 19.0625 8.375 C20.2449465 9.06855502 21.42788542 9.76127122 22.61132812 10.453125 C27.42376682 13.27525106 32.21862847 16.1255797 37 19 C36.34097701 22.57040303 34.83770842 25.17732255 32.9375 28.25 C32.38964844 29.14203125 31.84179688 30.0340625 31.27734375 30.953125 C30.85582031 31.62859375 30.43429687 32.3040625 30 33 C26.22281588 31.57941005 22.77331759 29.85409822 19.25390625 27.8828125 C18.16916016 27.27566406 17.08441406 26.66851562 15.96679688 26.04296875 C14.84337891 25.41003906 13.71996094 24.77710938 12.5625 24.125 C11.44294922 23.49980469 10.32339844 22.87460938 9.16992188 22.23046875 C3.97751636 19.31532595 -1.07594599 16.3454159 -6 13 C-5.34215037 9.70319035 -4.10579427 7.15882078 -2.4375 4.25 C-1.98246094 3.45078125 -1.52742188 2.6515625 -1.05859375 1.828125 C-0.53458984 0.92320312 -0.53458984 0.92320312 0 0 Z " fill="#DD7D83" transform="translate(416,137)"/>
<path d="M0 0 C2.97 0 5.94 0 9 0 C9.04634069 9.05776647 9.08187801 18.11549213 9.10362434 27.17335129 C9.11406149 31.379282 9.12821943 35.5851316 9.15087891 39.79101562 C9.17260975 43.84993538 9.18456915 47.90877711 9.18975449 51.96775055 C9.19344981 53.51630125 9.20066583 55.06484768 9.21146011 56.61336517 C9.22597835 58.78237638 9.22797782 60.95106521 9.22705078 63.12011719 C9.231492 64.35477722 9.23593323 65.58943726 9.24050903 66.86151123 C9.01235425 69.83878492 8.56859754 71.50183979 7 74 C2.37343654 72.53897996 2.37343654 72.53897996 0.85012817 70.34039307 C-0.27728129 67.2366478 -0.23928328 64.60648655 -0.22705078 61.30371094 C-0.22734283 60.63988403 -0.22763489 59.97605713 -0.22793579 59.29211426 C-0.22654658 57.10606649 -0.21100503 54.92036296 -0.1953125 52.734375 C-0.19158091 51.21551703 -0.18873463 49.69665665 -0.18673706 48.17779541 C-0.1791121 44.18617063 -0.15947344 40.19469211 -0.1373291 36.203125 C-0.11684614 32.12762429 -0.10773011 28.05209988 -0.09765625 23.9765625 C-0.07622641 15.98430799 -0.04210426 7.99217221 0 0 Z " fill="#BDD7FA" transform="translate(265,15)"/>
<path d="M0 0 C4.96191939 1.77068494 9.42378365 4.3633783 14 6.9375 C14.7940625 7.38029297 15.588125 7.82308594 16.40625 8.27929688 C17.93354272 9.13330805 19.45841729 9.99166275 20.98046875 10.85498047 C22.66808888 11.81181538 24.36429135 12.75349254 26.0625 13.69140625 C26.701875 14.12324219 27.34125 14.55507813 28 15 C28 15.66 28 16.32 28 17 C26.09155273 18.44873047 26.09155273 18.44873047 23.43359375 20.1171875 C22.47259766 20.72433594 21.51160156 21.33148438 20.52148438 21.95703125 C19.50376953 22.58996094 18.48605469 23.22289062 17.4375 23.875 C16.44685547 24.50019531 15.45621094 25.12539063 14.43554688 25.76953125 C9.35250922 28.96458349 4.24240097 32.07366678 -1 35 C-1.14534014 23.29204426 -0.71125207 11.68485544 0 0 Z " fill="#B8D2F4" transform="translate(272,396)"/>
<path d="M0 0 C4.61513112 1.31860889 8.09897612 3.21355437 12 6 C7.63114337 15.35855077 2.29059794 24.14466909 -3 33 C-4.81612488 32.04855402 -6.62781081 31.08863067 -8.4375 30.125 C-9.44683594 29.59132812 -10.45617187 29.05765625 -11.49609375 28.5078125 C-14 27 -14 27 -15 25 C-13.84423828 22.58569336 -13.84423828 22.58569336 -12.0703125 19.58984375 C-11.43996094 18.51798828 -10.80960937 17.44613281 -10.16015625 16.34179688 C-9.48855469 15.21837891 -8.81695312 14.09496094 -8.125 12.9375 C-7.46113281 11.81021484 -6.79726563 10.68292969 -6.11328125 9.52148438 C-1.1841863 1.1841863 -1.1841863 1.1841863 0 0 Z " fill="#E6B967" transform="translate(452,104)"/>
<path d="M0 0 C2.64 1.32 5.28 2.64 8 4 C8 4.66 8 5.32 8 6 C6.09155273 7.44873047 6.09155273 7.44873047 3.43359375 9.1171875 C2.47259766 9.72433594 1.51160156 10.33148438 0.52148438 10.95703125 C-0.49623047 11.58996094 -1.51394531 12.22289062 -2.5625 12.875 C-3.55314453 13.50019531 -4.54378906 14.12539063 -5.56445312 14.76953125 C-10.64749078 17.96458349 -15.75759903 21.07366678 -21 24 C-21 18.72 -21 13.44 -21 8 C-20.67 8 -20.34 8 -20 8 C-20 9.98 -20 11.96 -20 14 C-17.03521657 12.23979941 -14.0793969 10.46506961 -11.125 8.6875 C-10.28324219 8.18798828 -9.44148438 7.68847656 -8.57421875 7.17382812 C-7.76855469 6.68720703 -6.96289062 6.20058594 -6.1328125 5.69921875 C-5.01737061 5.03152466 -5.01737061 5.03152466 -3.87939453 4.3503418 C-1.72592965 2.97028193 -1.72592965 2.97028193 0 0 Z " fill="#96BDEF" transform="translate(292,407)"/>
<path d="M0 0 C1.65 0.66 3.3 1.32 5 2 C0.63114337 11.35855077 -4.70940206 20.14466909 -10 29 C-11.98 28.01 -13.96 27.02 -16 26 C-15.46890625 25.39800781 -14.9378125 24.79601562 -14.390625 24.17578125 C-11.06473472 19.75756426 -8.45419301 15.00393947 -5.75 10.1875 C-5.19570313 9.20845703 -4.64140625 8.22941406 -4.0703125 7.22070312 C-2.70959829 4.81599267 -1.35297444 2.4090709 0 0 Z " fill="#E2AB4A" transform="translate(459,108)"/>
<path d="M0 0 C2.64 1.32 5.28 2.64 8 4 C7.05825397 7.76698413 5.95002893 9.99569791 3.9375 13.25 C3.38964844 14.14203125 2.84179688 15.0340625 2.27734375 15.953125 C1.85582031 16.62859375 1.43429687 17.3040625 1 18 C-2.44094186 16.68753462 -5.13540882 15.33411133 -8 13 C-7.34 13 -6.68 13 -6 13 C-5.7525 12.34 -5.505 11.68 -5.25 11 C-3.67935707 7.23045697 -1.85093631 3.64017475 0 0 Z " fill="#D6606B" transform="translate(445,152)"/>
<path d="M0 0 C2.31 0 4.62 0 7 0 C5.02 3.96 3.04 7.92 1 12 C0.67 12 0.34 12 0 12 C0 8.04 0 4.08 0 0 Z " fill="#CFD9E7" transform="translate(392,137)"/>
</svg>
